<svg width="10" height="11" viewBox="0 0 10 11" fill="none" xmlns="http://www.w3.org/2000/svg">
<path fill-rule="evenodd" clip-rule="evenodd" d="M0 5.49997C0 2.82127 2.1793 0.641968 4.858 0.641968C7.5367 0.641968 9.716 2.82127 9.716 5.49997C9.716 8.17867 7.5367 10.358 4.858 10.358C2.1793 10.358 0 8.17867 0 5.49997ZM1.0336 5.49997C1.0336 7.60877 2.7493 9.32427 4.858 9.32427C6.9667 9.32427 8.6824 7.60877 8.6824 5.49997C8.6824 3.39117 6.9667 1.67567 4.858 1.67567C2.7493 1.67567 1.0336 3.39117 1.0336 5.49997Z" fill="black"/>
<path d="M6.64531 6.01452H4.70939V3.95569C4.70939 3.78244 4.55057 3.64197 4.35469 3.64197C4.15881 3.64197 4 3.78244 4 3.95569V6.32824C4 6.5015 4.15881 6.64197 4.35469 6.64197H6.64531C6.84119 6.64197 7 6.5015 7 6.32824C7 6.15499 6.84119 6.01452 6.64531 6.01452Z" fill="black"/>
</svg>
